<svg xmlns="http://www.w3.org/2000/svg" xmlns:xlink="http://www.w3.org/1999/xlink" version="1.0" id="Layer_1" x="0px" y="0px" width="303.39655562425935" height="329.6016324056253" viewBox="0 0 521.3 566.1" style="enable-background:new 0 0 521.3 566.1;" xml:space="preserve">
<style type="text/css">
	.st0{fill:url(#SVGID_1_);}
	.st1{fill:url(#SVGID_2_);}
	.st2{fill:url(#SVGID_3_);}
	.st3{fill:url(#SVGID_4_);}
	.st4{fill:#C42C2C;}
	.st5{fill:url(#SVGID_5_);}
	.st6{fill:#095434;}
	.st7{fill:url(#SVGID_6_);}
	.st8{fill:url(#SVGID_7_);}
	.st9{fill:url(#SVGID_8_);}
	.st10{fill:url(#SVGID_9_);}
	.st11{fill:url(#SVGID_10_);}
	.st12{fill:url(#SVGID_11_);}
	.st13{fill:url(#SVGID_12_);}
	.st14{fill:url(#SVGID_13_);}
	.st15{fill:url(#SVGID_14_);}
	.st16{fill:url(#SVGID_15_);}
	.st17{fill:url(#SVGID_16_);}
	.st18{fill:url(#SVGID_17_);}
	.st19{fill:url(#SVGID_18_);}
	.st20{fill:url(#SVGID_19_);}
	.st21{fill:url(#SVGID_20_);}
	.st22{fill:url(#SVGID_21_);}
	.st23{fill:url(#SVGID_22_);}
	.st24{fill:url(#SVGID_23_);}
	.st25{fill:url(#SVGID_24_);}
	.st26{fill:url(#SVGID_25_);}
	.st27{fill:url(#SVGID_26_);}
	.st28{fill:url(#SVGID_27_);}
	.st29{fill:url(#SVGID_28_);}
	.st30{fill:url(#SVGID_29_);}
	.st31{fill:url(#SVGID_30_);}
	.st32{fill:url(#SVGID_31_);}
	.st33{fill:url(#SVGID_32_);}
	.st34{fill:url(#SVGID_33_);}
	.st35{fill:url(#SVGID_34_);}
	.st36{fill:url(#SVGID_35_);}
	.st37{fill:url(#SVGID_36_);}
	.st38{fill:url(#SVGID_37_);}
	.st39{fill:url(#SVGID_38_);}
	.st40{fill:url(#SVGID_39_);}
</style>
<g>
	<g>
		<linearGradient id="SVGID_1_" gradientUnits="userSpaceOnUse" x1="84.3162" y1="148.4712" x2="381.4953" y2="148.4712">
			<stop offset="0" style="stop-color:#067C43"/>
			<stop offset="1" style="stop-color:#054C34"/>
		</linearGradient>
		<path class="st0" d="M101.8,165c-0.5-4.5-3.5-7.6-5.6-11.2c-3.6-6.1-7.4-12.1-11.2-18.1c-0.7-1.1-0.9-2.3-0.5-3.7    c98.9,0,197.8,0,296.9,0c-0.2,0.6-0.2,1.1-0.4,1.6c-3.3,6.6-6.7,13.1-10,19.6c-1.6,3.1-3.1,6.1-4.6,9.2c-0.4,0.8-0.5,1.7-0.8,2.7    C277.8,165,189.9,165,101.8,165z"/>
		<linearGradient id="SVGID_2_" gradientUnits="userSpaceOnUse" x1="98.4124" y1="227.2638" x2="400.0337" y2="227.2638">
			<stop offset="0" style="stop-color:#067C43"/>
			<stop offset="1" style="stop-color:#054C34"/>
		</linearGradient>
		<path class="st1" d="M400,280.7c-1,1.2-1.7,2.2-2.6,3.3c-1.2-0.8-2.2-1.5-3.3-2.2c-10.6-6.1-21.8-11.1-33.4-14.9    c-5.6-1.8-11.2-3.7-16.9-5.4c-10.3-3.2-20.8-5.6-31.4-7.8c-6.5-1.4-13-2.6-19.5-3.6c-6.2-1-12.3-1.8-18.5-2.6    c-5.1-0.6-10.2-0.9-15.2-1.7c-9.6-1.5-19.2-2.2-28.8-2.8c-7.7-0.5-15.5-0.9-23.2-1.3c-2.3-0.1-4.5-0.4-6.8,0.6    c-1.4,0.6-3.3,0.2-5,0.1c-5.1-0.3-10.2-0.4-15.3-0.9c-8.4-0.9-16.8-0.1-25.1-0.1c-6.6,0-13.1,0.1-19.7,0.2c-3,0.1-6,0.4-9.1,0.6    c-0.8,0-1.5,0-2.3-0.3c3.4-1,6.9-0.9,10.4-1.2c3.7-0.3,7.3-0.2,11-0.3c3.6-0.1,7.2-0.2,10.8-0.3c3.7-0.1,7.4,0,11-0.1    c3.6-0.1,7.1-0.2,10.9-0.4c0-0.9,0.1-1.8,0.1-2.6c0-13.7,0-27.4,0-41c0-1.1,0.3-2,0.9-2.9c2.8-3.8,2.8-6.5,0.1-10.3    c-0.7-1-1-1.9-0.9-3.1c0.1-0.9,0-1.8-0.1-2.6c0-0.3-0.1-0.6-0.3-1.1c-18.5,0-36.9,0-55.4,0c0,1.4-0.1,2.9,0,4.3    c0,1-0.2,1.7-0.9,2.4c-0.4,0.3-0.7,0.7-1,1.1c-2.2,2.9-2.2,6,0.3,8.7c1.2,1.3,1.6,2.6,1.5,4.3c-0.1,13.8-0.1,27.5-0.1,41.3    c0,1.1,0.2,2.2,0.3,3.3c0.1,1.1-0.3,1.7-1.4,1.7c-4.1,0.2-8.1,0.3-12.2,0.5c-1.8,0.1-3.7,0.4-5.5,0.5c-2.4,0.1-2.8-0.3-2.8-2.7    c0-11.7,0-23.3,0.1-35c0-5.7,0-11.4,0-17c0-0.8-0.2-1.6-0.6-2.2c-2.2-3-2.4-6-0.4-9.1c-0.3-0.7-0.6-1.4-0.8-2.1    c-0.3-1-1.1-2-0.1-2.9c1.1-1.1,2-2.6,3.9-2.5c0.9,0,1.8,0.1,2.6,0.1c85,0,170.1,0,255.1,0c1.2,0,2.4,0.1,3.6-0.1    c1.8-0.3,2.7,0.6,3.4,2c0.6,1.4,0.7,2.8-0.6,3.9c-0.2,0.2-0.4,0.5-0.7,0.8c2.2,3.1,2,6.2,0.3,9.4c-0.3,0.6-0.4,1.4-0.4,2.1    c0,20.5,0.1,41,0.2,61.4c0,4.8,0,9.6,0,14.7C377.9,269.2,389.4,273.8,400,280.7z M340.5,257.1c0.1-0.6,0.2-0.9,0.2-1.1    c0-19.1,0-38.2-0.1-57.3c0-2.6,0.1-4.9,1.8-7.2c1.7-2.3,1.9-5.3-0.1-7.6c-1.7-2-2.3-4.1-1.9-6.6c0-0.3-0.1-0.6-0.2-1.2    c-9.6,0-19.3,0.1-28.9,0c-9.6-0.1-19.3-0.3-29.2-0.4c0,1.7,0,3,0,4.4c0,1.1-0.3,2-0.9,2.9c-2.6,3.4-2.6,6.4,0,9.8    c0.7,0.9,0.9,1.8,0.9,2.8c0,16.2,0,32.5,0,48.7c0,0.5,0.1,1.1,0.1,1.7C301.9,248.7,321.3,252.1,340.5,257.1z M258.2,176.1    c-1.9-1-3.8-0.8-5.6-0.7c-7.4,0.2-14.8,0.6-22.3,0.8c-6,0.1-12,0-18,0c-3.1,0-6.2-0.2-9.3-0.2c-1.7,0-1.9,0.3-1.9,1.9    c0,0.3,0,0.6,0.1,1c0.1,1.7,0.1,3.3-1.2,4.7c-0.3,0.3-0.4,0.8-0.7,1.3c-1.7,3-1.3,5.8,1,8.4c0.8,0.9,1,1.8,0.9,2.8    c0,14.2-0.1,28.5-0.1,42.7c0,0.4,0.1,0.9,0.2,1.2c6.5,0.3,12.7,0.7,19,1c6.3,0.3,12.6,0.6,18.9,0.8c6.3,0.3,12.5,1.3,18.8,1.5    c0-0.7,0.1-1.1,0.1-1.5c0-14.1,0-28.1-0.1-42.2c0-3,0-5.9,2-8.6c1.6-2.3,1.6-5.2-0.4-7.3c-1.5-1.6-1.7-3.3-1.5-5.2    C258.1,177.6,258.1,176.9,258.2,176.1z"/>
		<linearGradient id="SVGID_3_" gradientUnits="userSpaceOnUse" x1="102.4076" y1="88.1314" x2="365.4298" y2="88.1314">
			<stop offset="0" style="stop-color:#067C43"/>
			<stop offset="1" style="stop-color:#054C34"/>
		</linearGradient>
		<path class="st2" d="M102.4,64c87.9,0,175.4,0,263,0c-0.1,0.6-0.1,1.1-0.2,1.5c-1,2.7-2.1,5.4-3.1,8c-0.8,2.1-0.5,4.3-0.5,6.4    c0,7,0.2,14.1,0.3,21.1c0.1,3,0.2,5.9,0.3,8.9c0,0.8-0.1,1.6-0.1,2.4c-85.2,0-170.3,0-255.5,0c-0.1-0.9-0.3-1.6-0.3-2.3    c0-11.4,0.1-22.8,0.1-34.2c0-1.3-0.7-2.6-1.1-3.9C104.3,69.3,103.4,66.8,102.4,64z M117,83.4c-0.1,7.7-0.2,15.1-0.2,22.5    c0,0.9,0.5,1.3,1.4,1.2c1.4,0,2.9-0.1,4.3-0.1c17,0,34.1,0,51.1,0c20.3,0,40.6,0,60.9,0c21.9,0,43.8,0,65.7,0    c14.3,0,28.6,0.1,42.9,0.1c1.6,0,1.8-0.2,1.8-1.8c0-6.9,0-13.8,0-20.6c0-0.4-0.2-0.9-0.3-1.4C268.8,83.4,193,83.4,117,83.4z"/>
		<linearGradient id="SVGID_4_" gradientUnits="userSpaceOnUse" x1="108.889" y1="29.1468" x2="359.6663" y2="29.1468">
			<stop offset="0" style="stop-color:#067C43"/>
			<stop offset="1" style="stop-color:#054C34"/>
		</linearGradient>
		<path class="st3" d="M221.9,34c0.4-4.2,0.7-8.1,1.2-12.1c0.7-5.6,1.7-11.1,4.4-16.1c1.3-2.4,3.1-4.5,5.7-5.6    c1.2-0.5,2.1-0.3,3,0.6c2.8,2.7,5,5.8,6.6,9.4c2.1,4.7,3.4,9.6,3.4,14.8c0,2.7,0,5.4,0,8.2c1.7,0.2,3.2,0.4,4.7,0.6    c10.4,1.3,20.8,2.6,31.2,3.8c10.2,1.2,20.5,2.3,30.7,3.5c9.7,1.1,19.4,2.3,29.1,3.4c1.2,0.1,2.4,0.4,3.6,0.5    c1.5,0.1,1.8-0.1,2-1.7c0.3-2.4,0.4-4.8,0.8-7.1c0.7-3.9,1.8-7.8,3.8-11.3c1.5-2.7,3.6-4.6,6.4-5.9c0.3-0.1,0.6-0.1,1.2-0.3    c0.2,4.5,0.1,8.8,0.1,13.2c0,4.4,0,8.8,0,13.2c0,4.4,0,8.7,0,13.2c-83.7,0-167,0-250.3,0c-0.1-0.1-0.1-0.1-0.2-0.2    c-0.1-0.1-0.1-0.1-0.2-0.2c-0.1-0.4-0.1-0.8-0.1-1.2c0-12.6,0-25.1,0.1-37.7c0-0.1,0.2-0.3,0.3-0.6c2.5-0.1,4.7,0.9,6.7,2.5    c2.5,1.9,4,4.5,4.9,7.5c1.2,3.9,1.6,7.8,1.5,11.8c0,0.6,0,1.3,0,1.9c0,0.1,0.2,0.3,0.3,0.5C155.8,39.8,188.9,36.9,221.9,34z"/>
		<path class="st4" d="M69.8,299.4c1.5,0,2.9,0,4.2,0c13.4,0,26.7-0.1,40.1,0c5.8,0.1,11.7,0.4,17.5,0.9c7,0.7,13.3,3.3,18.1,8.8    c2.4,2.8,4,6.1,5.2,9.6c1.7,5.1,2,10.4,1.1,15.5c-1.6,10.4-7.5,17.8-17.6,21.4c-2.9,1.1-6,1.8-9.1,2.7c0,0.9,0.9,1.1,1.6,1.5    c3.6,2.3,7.1,4.7,9.7,8.1c2.5,3.2,4.9,6.5,7.2,9.8c3.2,4.8,6.3,9.8,9.4,14.7c2.5,4,4.9,8,7.4,12.2c-0.5,0.1-0.9,0.3-1.3,0.3    c-7.3,0-14.6-0.1-21.8,0c-1.7,0-2.6-0.6-3.5-1.9c-4.6-6.9-9.1-13.7-13.8-20.5c-3.3-4.8-6.6-9.6-10.1-14.3c-2-2.7-4.5-5-7.8-6.1    c-1.2-0.4-2.4-0.7-3.7-0.8c-3.7-0.3-7.5-0.5-11.5-0.7c-0.3,5.1-0.1,9.9-0.1,14.8c0,4.9,0,9.8,0,14.6c0,4.9,0,9.7,0,14.8    c-7.1,0-14.1,0-21.3,0C69.8,369.7,69.8,334.7,69.8,299.4z M91.2,343.7c0.5,0.1,0.7,0.2,1,0.2c5.4,0,10.9,0,16.3-0.1    c4.6-0.1,9.3-0.2,13.9-0.5c4.2-0.2,7.6-2,10.1-5.5c1.3-1.9,1.7-4.2,1.8-6.4c0.4-7.6-3.2-13.2-11.8-13.8c-4.9-0.4-9.9-0.2-14.8-0.3    c-5-0.1-10.1-0.1-15.1-0.2c-0.4,0-0.8,0.1-1.3,0.2C91.2,326.1,91.2,334.9,91.2,343.7z"/>
		<linearGradient id="SVGID_5_" gradientUnits="userSpaceOnUse" x1="84.5191" y1="122.0567" x2="383.0203" y2="122.0567">
			<stop offset="0" style="stop-color:#067C43"/>
			<stop offset="1" style="stop-color:#054C34"/>
		</linearGradient>
		<path class="st5" d="M364.3,121.7c6,0,12.1,0,18.5,0c0.2,2.8,0,5.5,0.1,8.5c-99.6,0-199,0-298.5-0.1c0-2.7,0-5.2,0-7.8    c0.6-0.1,1.1-0.2,1.6-0.2c5.4,0,10.9,0.1,16.3,0.1c1.5,0,1.7-0.2,1.8-1.8c0.1-1.7,0.3-3.3,0.5-5c0.2-1.2,1-1.6,2.3-1.5    c13,0.1,26.1,0.1,39.1,0.1c19.8,0,39.5,0,59.3,0c42.8,0,85.6,0.1,128.4,0.1c9,0,18.1,0.1,27.1,0c1.4,0,2.2,0.4,2.4,1.7    C363.7,117.6,364,119.5,364.3,121.7z"/>
		<path class="st4" d="M239.7,404.9c-1.1,0-2,0-3,0c-5,0-10.1,0-15.1,0c-1.4,0-2.1-0.4-2.4-1.7c-0.4-1.7-0.9-3.4-1.4-5.1    c-0.1-0.4-0.3-0.8-0.6-1.5c-0.7,0.6-1.2,1-1.7,1.5c-8.1,7.2-17.5,9.7-28.1,8c-5.5-0.9-10.2-3.1-13.9-7.3    c-3.3-3.7-5.1-8.1-5.3-13.1c-0.1-3.2,0.1-6.3,1.1-9.4c2.1-5.9,6.1-9.9,11.7-12.3c5.1-2.2,10.5-3.1,15.9-4.3    c5.6-1.2,11.2-2.7,16.7-4c0.7-0.2,1.3-0.6,1.9-0.8c0.4-2.5,0.1-4.8-0.6-7c-0.8-2.7-2.8-4.3-5.4-4.8c-2.8-0.6-5.6-1-8.5-0.9    c-5.4,0.2-9.3,2.4-11.5,7.4c-0.3,0.7-0.7,1.4-1.1,2.1c-3.2-0.5-6.3-0.9-9.4-1.7c-2.9-0.7-6.1-0.5-9-2c1.6-3.5,2.8-6.8,4.9-9.8    c3.6-5.3,8.6-8.4,14.7-10c7.3-1.9,14.7-1.7,22.1-1.1c3.2,0.2,6.3,0.7,9.4,1.8c3.6,1.3,7,3.1,9.7,6c1.8,1.9,2.9,4.3,3.6,6.9    c2.1,7.7,1.3,15.5,1.4,23.3c0.1,7.8,0,15.5,0,23.3c0,3.7,0.5,7.3,1.9,10.7c0.6,1.5,1.2,2.9,1.8,4.4    C239.5,403.8,239.5,404.3,239.7,404.9z M215.6,368.3c-1,0.1-1.7,0.1-2.3,0.3c-2.5,0.7-5,1.4-7.5,2.1c-3.7,1-7.4,1.8-11.1,2.9    c-2.9,0.8-5.2,2.7-6,5.6c-1.7,5.6,2.3,11.6,8.1,12.8c3.5,0.7,6.7,0.1,9.7-1.3c3.8-1.7,6.9-4.4,8.2-8.6    C216.1,377.8,215.5,373.2,215.6,368.3z"/>
		<path class="st4" d="M319.3,404.9c-5.2,0-10,0-14.8,0c-1.4,0-2.7,0-4.1,0c-1,0-1.6-0.4-1.9-1.4c-0.4-1.9-1-3.7-1.5-5.5    c-0.1-0.4-0.3-0.7-0.6-1.2c-1.3,1.1-2.5,2.1-3.8,3c-1.9,1.3-3.7,2.8-5.8,3.8c-6,2.8-12.4,3.8-19.1,2.9c-2-0.3-4.1-0.8-6-1.5    c-7.2-2.6-12.1-7.6-13.8-15.1c-1.9-8.2-0.4-15.7,6-21.7c2.8-2.6,6.2-4.2,9.8-5.3c5.8-1.8,11.8-2.8,17.7-4c3.9-0.8,7.7-2,11.6-3.1    c2-0.6,2.2-0.8,1.9-2.9c-0.1-1.3-0.4-2.5-0.7-3.8c-0.6-3.4-2.7-5.4-6-6c-4.2-0.8-8.3-1.5-12.5-0.1c-2.1,0.7-4,1.5-5.2,3.5    c-0.8,1.3-1.9,2.5-2.3,4.1c-0.3,1.1-1,1.4-2.2,1c-1.6-0.5-3.3-0.5-4.9-0.8c-3.5-0.6-7.1-1.2-10.6-1.9c-0.4-0.1-0.7-0.4-1-0.5    c2.8-11,9.4-17.7,19.3-20.1c7.6-1.8,15.4-1.6,23.1-1c6.3,0.5,12,2.5,16.8,6.6c2.8,2.4,4.3,5.7,5,9.3c0.6,3,0.9,5.9,0.8,9    c-0.1,2.5,0.4,5.1,0.4,7.6c0,2.4-0.3,4.9-0.4,7.3c-0.1,1.3,0,2.7,0,4c0.1,3.1,0.1,6.3,0.2,9.4c0,1.3,0.1,2.7,0,4    C314.6,391.4,315.7,398.2,319.3,404.9z M294.6,368.2c-2,0.6-4,1.2-5.9,1.7c-4.8,1.2-9.7,2.3-14.5,3.7c-3.1,0.9-5.4,3-6.2,6.1    c-1.2,4.6,1.3,9.4,5.7,11.5c4.3,2.1,8.6,1.4,12.6-0.6c3.7-1.8,6.8-4.4,7.8-8.6c1-4.3,1-8.7,1-13.1    C295,368.7,294.8,368.5,294.6,368.2z"/>
		<path class="st4" d="M393.8,346.4c-1.4,0.9-14.9,3.6-19.2,3.8c-0.2-0.4-0.6-0.9-0.8-1.4c-1.6-4.8-5.4-6.8-10-7.3    c-4-0.4-8-0.5-11.9,0.5c-1.4,0.4-2.9,1-4,2c-2.6,2.3-2.2,5.8,1,7.2c3.2,1.5,6.7,2.7,10.1,3.5c8,2,16,3.5,23.6,6.7    c3.3,1.4,6.5,3.1,8.9,5.9c2.7,2.9,4.2,6.4,4.3,10.4c0.1,1.9-0.1,3.8,0,5.7c0.2,2.8-1,5.3-2.2,7.7c-2.6,4.9-6.5,8.7-11.4,11.2    c-3.5,1.7-7.2,2.8-11.1,3.3c-5.1,0.7-10.3,1.1-15.5,0.5c-6-0.7-11.8-1.7-17.1-4.8c-6.7-3.9-11.1-9.7-13.6-17    c-0.1-0.4-0.2-0.9-0.3-1.5c6.7-1,13.3-2.1,20.1-3.1c0.3,0.6,0.7,1.5,1,2.3c1.6,5.1,5.1,8.3,10.3,9.2c4.2,0.8,8.4,0.7,12.6-0.3    c2.5-0.6,4.6-1.8,6.1-3.9c2.4-3.3,0.7-7.6-2.7-8.6c-3.3-0.9-6.6-1.8-9.9-2.6c-8-2-16-3.7-23.5-7.4c-8.1-4-12.1-12.1-11.1-20.9    c0.7-6.3,3.6-11.2,8.5-15c3.5-2.7,7.6-4.3,12-5.1c6.3-1.2,12.7-1.1,19.1-0.7c3.4,0.2,6.6,0.9,9.8,1.9c6.1,1.9,10.9,5.6,13.8,11.4    C391.9,342.3,392.9,344.4,393.8,346.4z"/>
		<path class="st4" d="M432.2,301.3c0.6,3.2,0,6,0.1,8.8c0.2,2.9,0,5.9,0,8.8c0,2.9,0,5.8,0,9.1c0.4,0.1,1,0.4,1.6,0.4    c3.1,0,6.2-0.1,9.4,0c0.9,0,1.9,0.2,3.1,0.3c0,2.7,0,5.2,0,7.8c0,2.6,0,5.1,0,7.8c-0.6,0.1-1.1,0.3-1.6,0.3c-3.4,0-6.9,0-10.3,0    c-0.7,0-1.5,0.2-2.1,0.3c0,5,0,9.7,0,14.5c0,4,0.1,8,0.1,12c0,2.5-0.1,5.1,0,7.6c0.1,2.1,0.2,4.3,0.5,6.4c0.4,2.8,2.2,4.3,5,4.4    c2.3,0.1,4.4-0.6,6.5-1.3c0.6-0.2,1.2-0.3,1.8-0.5c0.4,3.7,0.7,7.1,1.1,10.4c0.1,1.3,0.4,2.6,0.6,4c0.1,1.1-0.4,1.7-1.4,1.9    c-7,2.1-14,3.4-21.2,1.6c-4.4-1.1-8.5-2.9-10.7-7.3c-1.4-2.7-1.9-5.6-2.1-8.5c-0.3-3.5-0.4-7-0.4-10.5c0-11,0-22.1,0-33.1    c0-0.5-0.1-1.1-0.1-1.8c-2,0-3.8,0-5.7,0c-0.6,0-1.3,0-1.9,0c-1.4-0.1-1.6-0.4-1.6-1.8c0.1-3.2,0.1-6.4,0.2-9.6c0-1.4,0-2.9,0-4.6    c2.8-0.3,5.8-0.1,9-0.2c0.1-0.7,0.2-1.3,0.2-1.9c0-3.9,0-7.8,0-11.8c0-1.2,0.3-1.9,1.4-2.5c4.9-2.7,9.7-5.6,14.5-8.4    C429.1,303.2,430.4,302.4,432.2,301.3z"/>
		<path class="st6" d="M244.7,468.8c-0.1,0.4-0.1,0.8-0.4,1.1c-2.8,3.4-5.8,6.5-10.1,8.3c-5.7,2.3-11.3,4.9-16.9,7.4    c-0.7,0.3-1.4,0.7-2.1,1.1c-1.8,1.1-2.9,2.5-3,4.8c-0.1,8-0.5,16-0.6,24c0,2.9,0.2,5.7,0.4,8.6c0.2,2.2,2.1,4.3,4.1,4.8    c1.7,0.4,3.2,0,4.2-1.5c0.6-0.9,1.1-2,1.3-3c0.5-2.9,1.2-5.8,1.2-8.8c0.1-5.3-0.1-10.5-0.2-15.8c0-2.8,1.2-5.2,2.6-7.5    c1.1,0.5,0.7,1.3,0.7,2c0.1,5.8,0,11.5,0.2,17.3c0.1,2.4,0.3,4.8,1.8,6.9c0.7,1,1.5,1.9,2.9,2.2c0.4-1.3,0.8-2.4,1.2-3.6    c0.5-1.5,1.2-1.8,2.7-1.4c1.9,0.6,3.1,2,3.1,4c0.1,3-1,5.7-2.4,8.2c-2,3.4-5.4,4-8.7,2c-1-0.6-1.9-1.4-2.9-2.3    c-0.6,1.6-1.1,3.2-1.8,4.6c-0.6,1.2-1.3,2.4-2.1,3.5c-1.7,2.3-4,3.1-6.8,2.4c-2.1-0.5-4.3-3.4-4.5-6c-0.1-0.9,0-1.8-0.1-2.6    c-0.1-0.7-0.3-1.3-0.5-2.1c-0.5,0.3-0.7,0.4-0.8,0.6c-1.3,3.5-4.1,5.6-7.3,6.8c-9.3,3.4-18.9,4.5-28.7,2.6    c-1.2-0.2-2.4-0.8-3.5-1.4c-1.5-0.8-2.3-2.2-2.5-3.8c-0.5-3.9-0.1-7.7,0.8-11.4c0.1-0.7,0.4-1.4,1.2-1.1c0.4,0.1,0.7,0.8,0.8,1.3    c0.1,0.9,0,1.9,0,2.9c-0.1,1.6,0.6,2.6,2.1,3.1c1.3,0.4,2.6,0.9,3.9,1.1c5.3,1,10.5,1.6,15.9,0.9c3.6-0.4,7.2-0.7,10.6-1.6    c1.2-0.3,2.4-0.8,3.6-1.4c2.5-1.4,4.3-3.3,4.3-6.4c0-3.4,0.4-6.9,0.5-10.3c0.1-4.3-0.2-8.7,0.1-13c0.5-5.5,2.6-10.4,7.5-13.5    c2.8-1.8,5.9-3.2,9-4.6c4.3-2,8.6-3.8,12.9-5.8c1.5-0.7,2.8-1.8,4.3-2.6c0.6-0.3,1.2-0.6,1.8-0.9    C244.5,468.5,244.6,468.6,244.7,468.8z"/>
		<linearGradient id="SVGID_6_" gradientUnits="userSpaceOnUse" x1="130.949" y1="209.9466" x2="169.8992" y2="209.9466">
			<stop offset="0" style="stop-color:#054C34"/>
			<stop offset="1" style="stop-color:#067C43"/>
		</linearGradient>
		<path class="st7" d="M169.9,219.2c-13.1,0-25.9,0-39,0c0-6,0-12.1,0-18.2c0.4-0.1,0.8-0.2,1.3-0.2c11.4,0,22.9,0.1,34.3,0.1    c1,0,2-0.1,3.4-0.2C169.9,206.8,169.9,212.9,169.9,219.2z"/>
		<path class="st6" d="M470.4,511.2c0.8,0.7,0.5,1.5,0.3,2.3c-0.8,2.8-1.6,5.7-2.3,8.5c-0.8,3.2-0.8,6.3,0.3,9.4    c1.3,3.6,4.9,6.1,8.7,6.4c13.4,1.2,23.6-11.2,24.1-20.9c0.3-5.3,0.2-10.5,0.3-15.8c0.1-6.5,0.1-13.1,0.2-19.6    c0-0.6,0.2-1.3,0.5-1.8c1-2.2,2-4.3,3.1-6.5c0.1-0.2,0.4-0.4,0.7-0.6c0.8,1,0.4,1.9,0.2,2.8c-0.8,5.1-1.3,10.3-1.2,15.5    c0.1,1.9,0.8,3.4,2.6,4.2c2.9,1.2,5,0.1,5.8-2.9c0.1-0.5,0-1.2,0.3-1.6c0.4-0.6,1-1.3,1.6-1.5c0.4-0.1,1.4,0.6,1.6,1.1    c0.5,1,0.8,2.1,0.8,3.2c0.1,3.6-0.9,6.8-3.5,9.4c-2.3,2.3-5,3.4-8.2,2c-0.3-0.1-0.7-0.2-1.1-0.2c-0.1,2.5-0.2,4.8-0.4,7.2    c-0.5,8.3-3.5,15.6-7.8,22.6c-1.9,3.1-4.2,5.9-6.9,8.2c-4.7,4-10.1,5.8-16.2,4.5c-4.9-1-7.7-4.4-8.9-9.1    c-1.1-4.3-0.8-8.7-0.1-13.1c0.8-4.4,2.5-8.6,4.1-12.7c0.1-0.4,0.4-0.7,0.7-0.9C469.9,511.2,470.2,511.2,470.4,511.2z"/>
		<linearGradient id="SVGID_7_" gradientUnits="userSpaceOnUse" x1="80.0683" y1="291.8298" x2="372.1945" y2="291.8298">
			<stop offset="0" style="stop-color:#067C43"/>
			<stop offset="1" style="stop-color:#054C34"/>
		</linearGradient>
		<path class="st8" d="M372.2,310.3c-1,1.2-1.7,2.2-2.4,3.1c-4.3-2.3-8.2-4.7-12.4-6.6c-6.5-3-13.2-5.8-19.9-8.3    c-12.2-4.5-24.8-8-37.4-11.1c-10.8-2.6-21.7-4.5-32.6-6.6c-6.1-1.2-12.3-1.9-18.5-2.6c-8.6-1-17.2-1.9-25.7-2.9    c-12-1.5-24.1-1.9-36.1-2.5c-6.9-0.3-13.9-0.5-20.8-0.7c-9.3-0.2-18.5-0.4-27.8-0.4c-9.5,0-19,0.2-28.5,0.4    c-5.8,0.2-11.6,0.6-17.5,0.9c-2.9,0.1-5.7,0-8.6,0.1c-1.3,0-2.5,0.1-3.8-0.1c1.6-0.2,3.2-0.5,4.8-0.6c5.9-0.3,11.8-0.7,17.7-0.9    c7.7-0.3,15.5-0.4,23.2-0.6c10.5-0.2,20.9-0.7,31.4-0.6c11.5,0.1,23,0.5,34.5,0.9c9.9,0.4,19.8,1.1,29.7,1.8    c7.2,0.5,14.3,1.1,21.5,1.9c6.3,0.7,12.5,1.6,18.8,2.5c7.2,1.1,14.4,2,21.5,3.4c8.9,1.7,17.7,3.7,26.4,5.7c9,2,17.8,4.7,26.5,7.5    c3.7,1.2,7.4,2.6,11,4c6.7,2.6,13.3,5.5,19.6,9C368.5,308,370.2,309.1,372.2,310.3z"/>
		<path class="st6" d="M339.4,500.9c0.7,0.1,0.9,0.1,1,0.2c1.1,1.8,2.8,1.8,4.6,1.7c1.8-0.1,3.2-0.9,4.4-2.2    c2.3-2.3,3.3-5.2,4.3-8.2c0.9-2.6,2-5.2,3.1-7.8c0.2-0.5,0.7-1,1.2-1.5c1.4,0.9,0.7,1.9,0.6,2.8c-0.2,1.4-0.5,2.8-0.4,4.2    c0.1,1.6,0.6,3.1,2.4,4.1c0.9-1.3,1.7-2.5,2.5-3.7c1-1.4,1.5-1.5,3-0.6c1.7,1,2.4,2.5,1.9,4.5c-0.8,3.2-2.4,5.9-5,8    c-2.5,2.2-7.4,2-8.9-1.3c-0.1-0.3-0.4-0.6-0.8-1.1c-0.8,1.6-1.3,3.3-2.3,4.4c-1.1,1.2-2.5,2.3-4,2.9c-1.5,0.6-3.2,0.6-5,0.8    c-0.1,0.9-0.1,1.9-0.2,2.8c-0.3,7.7-2.7,14.7-6.7,21.2c-2.2,3.6-4.6,6.9-7.7,9.7c-3.6,3.3-7.9,5.1-12.8,5.3    c-7.3,0.2-11.8-3.8-13.1-11c-0.7-3.6-0.3-7.2,0.4-10.7c0.9-4.7,2.4-9.3,4.4-13.6c0.3-0.5,0.6-1,0.9-1.5c1.2,0.4,1,1.1,0.8,1.8    c-0.7,2.1-1.5,4.2-2.1,6.4c-0.9,3.1-1.3,6.2-1.2,9.5c0.1,5.8,4.7,9.3,9.7,9.7c8.5,0.6,14.9-3,19.9-9.7c3.6-4.8,5.1-10.2,4.7-16.2    c-0.1-1.8-0.5-3.5-0.4-5.2C338.6,504.8,339.1,502.9,339.4,500.9z"/>
		<linearGradient id="SVGID_8_" gradientUnits="userSpaceOnUse" x1="94.386" y1="276.1037" x2="384.0146" y2="276.1037">
			<stop offset="0" style="stop-color:#067C43"/>
			<stop offset="1" style="stop-color:#054C34"/>
		</linearGradient>
		<path class="st9" d="M384,294.5c-0.8,1.1-1.6,2.1-2.5,3.2c-1.4-0.9-2.7-1.7-4-2.4c-8.5-4.8-17.4-8.7-26.6-12.1    c-11.1-4.1-22.4-7.5-33.9-10.4c-11.5-2.9-23-5.4-34.7-7.2c-9.8-1.5-19.6-3.1-29.4-4.4c-7.5-1-15.1-1.6-22.7-2.2    c-10.8-0.9-21.7-1.6-32.5-2.3c-7.4-0.4-14.8-0.5-22.3-0.7c-8.1-0.2-16.3-0.3-24.4-0.2c-9.7,0-19.4,0.1-29,0.3    c-6.6,0.2-13.2,0.6-19.9,0.9c-2.6,0.1-5.2,0.1-7.9,0.2c0-0.2,0-0.4,0-0.6c2.4,0,4.8,0.1,7.2,0c1.7-0.1,3.5-0.5,5.2-0.6    c8.1-0.3,16.1-0.6,24.2-0.8c9.7-0.2,19.3-0.5,29-0.5c9.9-0.1,19.8,0,29.7,0.2c8.3,0.2,16.6,0.7,24.9,1.2    c10.4,0.6,20.9,1.3,31.3,2.2c6.1,0.5,12.2,1.4,18.3,2.2c6.1,0.8,12.2,1.5,18.3,2.5c7.4,1.2,14.8,2.6,22.1,4c5.1,1,10.2,2,15.2,3.3    c13.2,3.3,26.2,7,38.9,12c8.1,3.2,16.1,6.7,23.6,11.2C382.8,293.6,383.3,294,384,294.5z"/>
		<path class="st6" d="M39,500.3c1.2,2.9,3.3,2.7,5.3,2.5c2.1-0.2,3.6-1.5,4.8-3.2c1.9-2.6,2.8-5.5,3.7-8.5c0.8-2.3,2-4.5,3-6.7    c0.2-0.4,0.7-0.7,1.2-1.1c0.8,1.2,0.4,2.2,0.1,3.2c-0.5,1.8-0.5,3.6,0.1,5.4c0.3,1,0.7,1.9,2,2.4c1.2-1.6,2.4-3.3,3.5-4.9    c3.9,0.9,4.8,2.7,3.5,6.3c-0.9,2.3-2,4.3-3.7,6.1c-1.6,1.6-3.4,2.2-5.7,2c-1.6-0.2-2.9-0.8-3.8-2.2c-0.3-0.5-0.7-1-1.3-1.8    c-1.5,6-5.1,8.7-10.9,8.2c-0.1,0.4-0.3,0.7-0.3,1c0.1,8-2.1,15.3-6,22.2c-2.1,3.7-4.5,7.1-7.6,10.1c-3.7,3.6-8.1,5.7-13.2,6    c-7.6,0.5-12.4-4-13.5-11c-1.2-7.2,0.8-13.9,3.1-20.6c0.5-1.5,1.2-2.9,1.9-4.4c0.2-0.3,0.5-0.5,0.9-0.9c0.8,0.9,0.4,1.7,0.2,2.5    c-1,3.7-2.1,7.4-2.9,11.1c-0.4,1.7-0.4,3.5-0.1,5.2c0.8,5,4.9,8.4,10.1,8.6c9.1,0.3,15.7-3.9,20.6-11.3c3.8-5.8,4.4-12.2,3.4-18.9    C37.2,505.3,37.7,503.1,39,500.3z"/>
		<linearGradient id="SVGID_9_" gradientUnits="userSpaceOnUse" x1="101.6984" y1="167.8636" x2="365.7519" y2="167.8636">
			<stop offset="0" style="stop-color:#067C43"/>
			<stop offset="1" style="stop-color:#054C34"/>
		</linearGradient>
		<path class="st10" d="M365.8,166.5c-0.1,1-0.1,1.7-0.1,2.5c-0.7,0.1-1.2,0.2-1.7,0.2c-43.8,0-87.7,0-131.5,0    c-41.4,0-82.9,0-124.3,0c-1.5,0-3,0-4.6,0c-1.8,0-2.1-0.4-1.7-2.6C189.7,166.5,277.6,166.5,365.8,166.5z"/>
		<path class="st6" d="M147.4,485.4c-0.2,0.8-0.2,1.3-0.5,1.7c-0.9,1.5-1.8,3-2.9,4.4c-0.7,0.8-1.7,1.4-2.6,2    c-1.7,1-3.5,1.9-5.2,2.9c-1.1,0.6-2.1,1.4-3,2.5c0.6,0,1.1,0.1,1.7,0.1c2.4,0,4.2,1.4,4.3,3.8c0,1.6-0.3,3.2-0.8,4.7    c-2.2,6.8-6.9,11-13.8,12.1c-3.8,0.6-6.7,2.1-9.1,5c-1.7,2.1-3.8,3.8-6.5,4.7c-2.1,0.6-3.6,2.1-4.7,3.9c-1.7,2.7-3.6,5.3-4.9,8.2    c-4.2,8.8-11.2,14.3-20,18c-0.4,0.2-1,0.1-1.5,0.2c-0.3-1.3,0.7-1.5,1.3-1.9c4.3-2.9,8.3-6.2,12-9.9c2.8-3,5.3-6.2,7.1-9.9    c1.6-3.4,3.4-6.7,5.2-10c1.6-3.1,3.9-5.6,7.3-7c1.1-0.4,1.6-1.2,1.9-2.3c1.2-4,2.5-8.1,3.8-12.1c0.5-1.6,1-3.2,1.8-4.7    c1.6-3.1,4.9-4.2,7.7-2.6c0.9,0.5,1.5,1.3,2.4,2.2c0.3-0.3,0.6-0.7,0.8-1c4-6.3,9.2-11.2,16.1-14.3    C145.6,485.6,146.3,485.6,147.4,485.4z M115.2,518.5c0.6-0.1,1-0.1,1.2-0.2c4.2-2.6,7.1-6.3,8.9-10.8c0.2-0.5,0.3-1.3,0-1.6    c-0.8-0.9-1.7-2-2.8-2.3c-1.2-0.4-2.2,0.7-2.8,1.8c-0.4,0.8-0.9,1.5-1.2,2.4C117.5,511.2,116.4,514.6,115.2,518.5z M123.6,516.3    c0.4,0,0.7,0.1,0.9,0c2.9-1.1,5.8-2.4,8-4.7c1.1-1.2,1.9-2.7,2.6-4.2c0.5-1.1,0.1-2.2-0.9-3c-1-0.7-1.9-0.8-2.9-0.1    c-0.8,0.6-1.6,1.3-2.2,2.1c-0.7,1-1.2,2.3-1.8,3.4C126.2,512,124.9,514.1,123.6,516.3z"/>
		<path class="st6" d="M448.1,485.8c0,0.1,0.1,0.2,0.1,0.2c-1.3,2.8-2.4,5.6-5.4,7.2c-2.7,1.4-5.3,3-7.9,4.6    c-0.2,0.1-0.4,0.4-0.8,0.9c0.7,0.1,1.1,0.3,1.5,0.3c3.2,0.1,5.2,2.1,4.7,5.2c-1.3,8-6.3,13.7-14.4,15.4c-1.3,0.3-2.7,0.4-4,0.7    c-0.9,0.2-1.8,0.7-2.5,1.3c-1.4,1.2-2.7,2.5-3.9,3.9c-1.5,1.7-3.3,3-5.5,3.7c-2.1,0.7-3.6,2.1-4.7,3.8c-1.9,3-3.9,5.9-5.4,9.1    c-4.2,8.6-11.3,13.7-19.7,17.3c-0.4,0.2-0.9,0-1.3,0c-0.4-1.1,0.4-1.3,1-1.7c5.6-3.6,10.7-7.9,14.9-13.1c1.7-2.1,3.1-4.5,4.4-6.8    c2-3.6,3.7-7.2,5.6-10.8c1.4-2.7,3.5-4.8,6.3-6c1.3-0.6,2.1-1.4,2.5-2.6c1.1-3.7,2.2-7.3,3.4-11c0.7-2,1.3-4.1,2.3-6    c1.5-2.8,4.5-3.7,7.2-2.5c0.9,0.5,1.7,1.4,2.9,2.6c0.2-0.4,0.4-0.9,0.6-1.3c3.9-6.2,9-11.1,15.8-14.2    C446.5,485.7,447.3,485,448.1,485.8z M416.6,518.4c0.3,0,0.6,0.1,0.8,0c4.2-2.5,7.1-6.1,9-10.6c0.7-1.6-0.1-3.1-1.8-3.9    c-1.3-0.7-2.8-0.2-3.7,1.2c-0.5,0.8-0.9,1.7-1.2,2.6c-1.1,3.2-2.2,6.5-3.2,9.8C416.5,517.7,416.6,518.1,416.6,518.4z M424.9,516.3    c0.4,0,0.8,0.2,1,0c2.4-1.3,4.9-2.6,7.2-4.1c1.6-1.1,2.6-2.8,3.2-4.7c0.4-1.2,0-2.2-1-3c-0.9-0.7-2-0.8-2.9-0.1    c-0.8,0.6-1.7,1.3-2.2,2.1C428.5,509.7,426.8,512.9,424.9,516.3z"/>
		<linearGradient id="SVGID_10_" gradientUnits="userSpaceOnUse" x1="101.8091" y1="61.2446" x2="366.6104" y2="61.2446">
			<stop offset="0" style="stop-color:#067C43"/>
			<stop offset="1" style="stop-color:#054C34"/>
		</linearGradient>
		<path class="st11" d="M101.9,60.4c0.6-0.1,1.1-0.2,1.7-0.2c84.5,0,169,0,253.4,0c2.6,0,5.3,0,7.9,0c1.5,0,1.5,0.1,1.6,1.9    c-0.3,0.1-0.6,0.2-0.9,0.2c-31.4,0-62.7-0.1-94.1-0.1c-54.6,0-109.1,0-163.7,0c-1.6,0-3.2,0-4.8,0.1    C101.7,62.4,101.7,61.6,101.9,60.4z"/>
		<path class="st6" d="M340.2,450.2c-1.4,0-2.7,0-4,0c-0.1-0.6-0.1-1.1-0.1-1.7c0-2.9,0-5.8,0-8.6c0-0.4,0-0.8,0-1.2    c-0.2-1.7-1.5-3.1-3-3.3c-1.6-0.2-3.2,0.8-3.7,2.7c-0.2,0.8-0.4,1.7-0.4,2.6c0,2.6,0,5.3,0.1,7.9c0,1.6-0.1,1.8-1.7,1.8    c-0.6,0-1.1,0-1.7-0.1c-0.1,0-0.3-0.1-0.6-0.3c0-5.9,0-12,0-18.1c0.5-0.1,0.9-0.1,1.3-0.1c0.7,0,1.4,0,2.2,0    c0.2,0.7,0.3,1.3,0.5,2.2c1.7-1.3,3.1-2.7,5.3-2.6c2.2,0.1,3.7,1.2,5.4,3.4c0.5-0.8,0.8-1.5,1.3-2c2-1.7,4.4-1.9,6.8-0.9    c2.1,0.9,3.3,2.7,3.3,4.9c0.2,4.2,0.1,8.3,0,12.5c0,0.3-0.2,0.6-0.4,1.1c-1.2-0.1-2.3-0.2-3.4-0.3c0-2.8,0-5.3,0-7.9    c0-1.3,0-2.6-0.3-3.8c-0.4-2.2-1.8-3.4-3.5-3.3c-1.7,0.1-3.2,1.7-3.4,3.8c-0.1,1.6,0,3.2,0,4.8    C340.2,445.9,340.2,447.9,340.2,450.2z"/>
		<path class="st6" d="M497.5,431.9c0.2,0.7,0.3,1.2,0.5,2c3.6-3.6,7-3.4,10.5,0.8c0.3-0.6,0.5-1.1,0.8-1.4c1.9-2,4.3-2.2,6.9-1.5    c2.3,0.7,3.5,2.5,3.6,4.6c0.3,4.6,0.1,9.2,0.1,13.8c-1.3,0-2.5,0-3.8,0c-0.1-0.7-0.1-1.2-0.1-1.7c0-3.1,0.1-6.2,0-9.4    c0-2-1.3-3.5-3-3.8c-1.6-0.3-3.1,0.7-3.7,2.6c-0.3,0.8-0.4,1.7-0.4,2.6c-0.1,2.6,0,5.1,0,7.7c0,0.6,0,1.1,0,1.6    c-1.3,0.9-2.5,0.5-3.9,0.2c0-0.6,0-1.1,0-1.6c0-3,0-5.9,0-8.9c0-0.5-0.1-1-0.2-1.4c-0.5-1.7-2.2-3.1-3.7-2.9    c-1.7,0.2-3.2,1.7-3.2,3.6c-0.1,3.1,0,6.2,0,9.4c0,0.6,0,1.1,0,1.7c-1.4,0.6-2.8,0.6-4.1,0c0-6,0-12,0-18    C495.1,431.9,496.3,431.9,497.5,431.9z"/>
		<path class="st6" d="M0.6,426c4.1,0,7.9-0.3,11.7,0.1c3.2,0.3,5.8,3.1,6,6.8c0.1,2.1,0.2,4.2-1.2,6c-1.7,2.2-3.8,3.6-6.7,3.6    c-1.7,0-3.5,0-5.5,0c0,2.6,0,5.1,0,7.7c-1.6,0-2.8,0-4.2,0C0.6,442,0.6,434.2,0.6,426z M4.9,429.9c0,3,0,5.7,0,8.6    c1.6,0,3.1,0,4.6,0c0.4,0,0.8,0,1.2-0.1c2-0.4,3.7-2.5,3.7-4.4c-0.1-2-1.8-3.9-3.7-4C8.8,429.8,6.9,429.9,4.9,429.9z"/>
		<path class="st6" d="M428.4,428.6c-0.7,1.1-1.4,2.1-2,3.1c-1.7-0.8-3.2-1.6-4.7-2.2c-1.1-0.4-2.1-0.4-3.3,0.1    c-1.2,0.5-2,1.3-2.1,2.7c0,1.3,0.7,2.1,1.8,2.6c1.1,0.5,2.2,0.8,3.4,1.2c1.3,0.5,2.7,0.9,4,1.5c2.4,1.1,3.6,3,3.5,5.7    c0,2.9-1.1,5.1-3.7,6.5c-2.3,1.2-4.7,1.5-7.2,0.8c-3.4-1-5.2-2-6.9-3.9c0.7-0.9,1.5-1.9,2.3-2.9c1.3,0.8,2.4,1.7,3.6,2.3    c1.5,0.8,3.1,1.3,4.8,0.8c1.8-0.5,3-1.5,3.1-2.9c0.1-1.7-1.1-2.4-2.4-2.9c-1.3-0.5-2.6-0.8-3.9-1.3c-0.7-0.2-1.4-0.4-2-0.7    c-3.4-1.4-4.8-3.5-4.5-6.8c0.3-3.5,2.2-5.9,5.7-6.5C420.6,425.2,424.9,425.2,428.4,428.6z"/>
		<path class="st6" d="M274,450.3c-1.4,0-2.5,0-3.9,0c0-8.1,0-16,0-24c0.1-0.1,0.2-0.3,0.3-0.3c3.7,0,7.3-0.1,11,0.1    c2.4,0.1,4.3,1.5,5.3,3.6c2.4,4.9,1,11.9-6.7,12.7c-1.8,0.2-3.7,0-5.7,0C273.6,445,274.5,447.5,274,450.3z M274.2,429.9    c0,3,0,5.7,0,8.5c1.8,0,3.3,0,4.9,0c0.3,0,0.6,0,1-0.1c2.2-0.4,3.6-2.1,3.6-4.4c0-2-1.4-3.8-3.4-4    C278.2,429.8,276.3,429.9,274.2,429.9z"/>
		<path class="st6" d="M54.1,431.9c-2.4,2.6-4.6,5-6.9,7.5c2.3,3.5,4.5,7.1,6.8,10.6c-2.5,1-4.5,0.5-5.8-1.6    c-1.2-1.9-2.4-3.8-3.5-5.7c-3.5,1.5-2.2,4.7-2.6,7.5c-1.3,0-2.6,0-4,0c0-8.5,0-16.9,0-25.4c1.3,0,2.6,0,4.1,0c0,2.5,0,4.9,0,7.4    c0,2.4,0,4.9,0,7.6c0.6-0.5,0.9-0.8,1.2-1.1c1.2-1.4,2.5-2.8,3.4-4.3C48.5,431.8,50.9,431.4,54.1,431.9z"/>
		<path class="st6" d="M490.1,447.2c-1.2,2.8-5.9,4.3-8.6,3.6c-4.8-1.2-8-5.8-7.1-10.7c0.3-1.8,0.9-3.6,1.8-5.1    c1.8-2.8,4.5-3.9,7.9-3.4c3.4,0.5,5.4,2.5,6.5,5.6c0.3,1.1,0.5,2.2,0.6,3.3c0.2,2,0,2.3-2,2.2c-3.3,0-6.5-0.1-9.8-0.2    c-0.2,0-0.5,0.1-0.8,0.2c-0.1,2.1,1.1,3.4,2.7,4.1c2.4,1,4.7,0.5,6.6-1.9C488.7,445.8,489.4,446.5,490.1,447.2z M487.1,439.7    c-0.7-3.3-2.5-4.9-4.8-4.7c-2.1,0.2-3.8,2.2-3.8,4.7C481.3,439.7,484.1,439.7,487.1,439.7z"/>
		<path class="st6" d="M358,442.5c-0.2,2.1,0.8,3.5,2.3,4.2c2.5,1.2,4.8,0.6,6.9-1.6c0.9,0.7,1.7,1.4,2.6,2.2    c-2.4,2.8-5.2,4.2-8.6,3.6c-3.4-0.6-6-2.7-7-6.2c-0.8-2.8-0.8-5.7,0.5-8.4c1.4-3.1,3.9-4.6,7.2-4.8c3.5-0.1,6,1.5,7.5,4.6    c0.9,2,1.4,4.1,1,6.6C366.3,442.7,362.3,442.9,358,442.5z M366.4,439.7c-0.5-3.1-2.3-4.8-4.6-4.7c-2.1,0.2-3.9,2.3-3.8,4.7    C360.7,439.7,363.5,439.7,366.4,439.7z"/>
		<path class="st6" d="M31,439.4c-0.4-3-2.6-4.7-5.2-4.1c-1.3,0.3-2.6,0.8-4.2,1.2c-0.3-1-0.6-2-0.9-2.9c0.2-0.3,0.2-0.5,0.3-0.6    c3.3-1.7,6.7-1.8,10.2-0.6c1.3,0.5,2.3,1.5,2.7,2.8c0.4,1.4,0.8,2.9,0.9,4.4c0.1,2.9,0,5.8,0,8.6c0,0.9,0.2,1.8-1,2.1    c-1.3,0.3-2.5-0.2-3.1-1.3c-0.1-0.1-0.2-0.2-0.1-0.1c-1.8,0.7-3.4,1.6-5.1,1.8c-3.6,0.4-6.4-2.1-6.5-5.5c-0.1-3.6,2.3-6.2,6-6.3    C27.1,439,28.9,439.2,31,439.4z M27.2,441.8c-0.4,0-1.1,0-1.8,0.2c-1.3,0.3-2.4,1.5-2.5,2.6c-0.1,1.3,0.8,2.4,2.3,3    c2,0.7,4.5-0.4,5.5-2.6c0.9-1.9,0.4-2.8-1.7-3C28.5,441.9,28,441.8,27.2,441.8z"/>
		<path class="st6" d="M299.8,448.6c-0.7,0.5-1.1,0.9-1.7,1.3c-2.4,1.5-5.7,1.2-7.8-0.6c-1.9-1.7-2.4-4.4-1.3-7c1-2.2,3-3.1,5.2-3.3    c1.6-0.1,3.3,0.3,4.9,0.5c0.3,0,0.6,0,1-0.1c0.5-1.3-0.2-2.2-1-2.9c-1.1-1-2.5-1.5-4-1.2c-1.3,0.3-2.6,0.8-4.1,1.2    c-0.4-1.1-0.7-2.1-1.1-3.3c0.6-0.3,1.2-0.8,1.7-0.9c1.8-0.3,3.6-0.6,5.4-0.6c4.5,0,6.9,2.5,7,7c0,2.8,0,5.6,0,8.4    c0,0.7,0.2,1.5,0,2.1c-0.1,0.4-0.6,1.1-0.9,1.1C302,450.3,300.3,450.8,299.8,448.6z M296,447.7c2,0,3.9-1.6,4.4-3.5    c0.3-1.2,0-1.9-1.2-2.2c-1.1-0.2-2.4-0.3-3.5-0.2c-1.9,0.1-3.3,1.5-3.2,3.1C292.6,446.6,294.1,447.8,296,447.7z"/>
		<path class="st6" d="M92,436.5c-0.4-1.2-0.7-2.2-1.1-3.5c3.5-1.3,6.8-1.9,10.2-0.7c2.6,0.9,4,3,4.1,5.7c0.1,4,0,8,0,11.9    c-2.8,0.8-3.5,0.8-4.5-1.2c-0.4,0.4-0.8,0.7-1.2,1c-2.4,1.6-4.8,1.5-7.3,0.2c-1.9-1-3-3.3-2.7-5.5c0.3-2.8,1.9-4.7,4.5-5.2    c1.8-0.4,3.8,0,5.7,0.1c0.4,0,0.9,0.2,1.3,0.2c0.3-1.9-0.2-3.1-1.7-3.8c-1.2-0.5-2.4-0.9-3.7-0.4C94.4,435.8,93.4,436.1,92,436.5z     M97.5,441.8c-0.4,0-1.2,0-1.8,0.2c-1.3,0.3-2.3,1.5-2.4,2.7c-0.1,1,0.8,2.2,2,2.7c1.9,0.9,4.4-0.1,5.6-2c1.2-2.1,0.6-3.3-1.8-3.5    C98.6,441.8,98.2,441.8,97.5,441.8z"/>
		<path class="st6" d="M222.7,439.5c0.3-2.9-1.9-4.8-4.8-4.3c-1.3,0.3-2.6,0.7-4.2,1.2c-0.4-1.1-0.7-2.1-1.2-3.4    c3.4-1.6,6.9-1.9,10.3-0.8c2,0.6,3.3,2.3,3.6,4.4c0.2,1.2,0.2,2.4,0.2,3.6c0,3.3,0,6.5,0,9.7c-2.8,0.8-3.3,0.6-4.4-1.2    c-0.6,0.4-1.1,0.9-1.7,1.3c-2.2,1.5-5.7,1.2-7.8-0.7c-1.9-1.7-2.4-4.5-1.2-7c0.9-2,2.7-3,4.7-3.2c1.8-0.2,3.7-0.4,5.4,0.5    C222.1,439.6,222.4,439.5,222.7,439.5z M219.6,441.9C219.6,441.9,219.6,441.9,219.6,441.9c-0.6,0-1.1-0.1-1.7,0    c-1.6,0.2-3,1.6-3,3c0,1.4,1.4,2.7,3.1,2.9c1.7,0.2,3.7-0.9,4.6-2.5c1.1-2,0.5-3.2-1.8-3.4C220.4,441.8,220,441.9,219.6,441.9z"/>
		<path class="st6" d="M384.4,450.2c0-3.7,0-7,0-10.4c0-0.8-0.1-1.6-0.3-2.3c-0.5-1.5-1.7-2.1-3.1-2.2c-1.4,0-2.7,0.6-3.2,2    c-0.4,1.1-0.6,2.3-0.6,3.5c-0.1,3,0,6,0,9.1c-1.3,0.8-2.6,0.6-3.9,0.1c0-6.1,0-12.1,0-18.2c1.2,0,2.2,0,3.4,0    c0.2,0.6,0.4,1.3,0.6,1.9c0.3-0.1,0.6-0.1,0.8-0.2c1.1-1.2,2.5-2,4.2-2.1c3.6-0.1,6.1,1.7,6.5,5.9c0.4,3.9,0.1,7.8,0.1,11.7    c0,0.8-0.4,1.4-1.3,1.4C386.4,450.3,385.5,450.3,384.4,450.2z"/>
		<path class="st6" d="M170.8,450.2c-1.6,0-2.8,0-4.1,0c0-6.1,0-12.1,0-18.2c1.2,0,2.3,0,3.7,0c0.1,0.5,0.3,1.1,0.5,1.8    c0.3-0.1,0.6-0.1,0.8-0.3c1.8-2.3,4.2-2.5,6.7-1.6c2.4,0.8,3.5,2.7,3.7,5.1c0.2,2.4,0.2,4.8,0.3,7.2c0,1.9,0,3.8,0,6    c-1.3,0-2.6,0-4.2,0c0-2.2,0-4.3,0-6.4c0-1.7,0.1-3.4-0.1-5c-0.1-1.7-1.4-3-3-3.3c-1.5-0.3-3.1,0.6-3.8,2.2    c-0.3,0.7-0.4,1.5-0.4,2.3c0,2.7,0,5.4,0,8.1C170.8,448.7,170.8,449.3,170.8,450.2z"/>
		<path class="st6" d="M305.3,431.8c1.5,0,2.8,0,4.3,0c1.5,4.4,2.9,8.7,4.4,13c0.2,0,0.4,0,0.5,0c1.6-4.3,2.7-8.7,4.2-13    c1.4,0,2.7,0,4.3,0c-0.9,2.6-1.8,5-2.7,7.4c-1.4,3.8-2.7,7.5-4.1,11.3c-0.2,0.7-0.5,1.4-0.8,2c-1.9,3.8-5.5,4.7-9.3,2.2    c0.3-0.8,0.7-1.7,1.1-2.7c0.4,0,0.9,0,1.3,0.2c1.1,0.4,2.1,0.5,3.1-0.5c0.9-0.9,0.5-1.8,0.1-2.9c-2.1-5.2-4.1-10.4-6.2-15.6    C305.5,432.8,305.5,432.4,305.3,431.8z"/>
		<path class="st6" d="M443.5,431.8c1.4,0,2.5,0,3.8,0c0,0.5,0.1,1-0.1,1.4c-2.2,6-4.4,12-6.5,18c-0.1,0.4-0.3,0.8-0.4,1.1    c-1.9,4-5.2,4.9-9.2,2.5c0.1-0.5,0.3-1,0.5-1.5c0.2-0.4,0.4-0.9,0.7-1.4c0.6,0.2,1.1,0.3,1.6,0.4c1,0.2,1.9,0.2,2.6-0.7    c0.8-0.9,0.6-1.7,0.3-2.7c-2.2-5.4-4.3-10.8-6.5-16.2c-0.1-0.3-0.1-0.6-0.1-1c1.3,0,2.6,0,4.1,0c0.8,2.2,1.7,4.4,2.5,6.7    c0.7,2.1,1.3,4.3,2.3,6.4c1.5-2,1.4-4.4,2.3-6.4C442,436.3,442.7,434.1,443.5,431.8z"/>
		<path class="st6" d="M230.3,431.9c1.2,0,2.3,0,3.5,0c0.1,0.7,0.2,1.3,0.3,2.2c0.5-0.3,0.9-0.4,1.1-0.7c1.6-1.9,3.6-2.2,5.9-1.8    c2,0.4,3.3,1.5,4,3.4c0.3,1,0.6,2,0.6,3c0.1,3.6,0,7.2,0,10.8c0,0.4-0.1,0.8-0.2,1.3c-1.2,0-2.4,0-3.7,0c0-0.5-0.1-1.1-0.1-1.6    c0-2.7,0.1-5.4,0-8.1c0-0.7-0.1-1.4-0.3-2.1c-0.4-1.8-1.9-3.1-3.5-3c-1.6,0-3.3,1.3-3.6,3c-0.2,0.9-0.2,1.9-0.2,2.9    c0,2.9,0,5.9,0,9c-1.3,0-2.4,0-3.8,0C230.3,444.1,230.3,438,230.3,431.9z"/>
		<path class="st6" d="M123.8,450.2c-1.3,0-2.5,0-3.8,0c0-3.1,0-5.9,0-8.8c0-1,0-1.9-0.2-2.9c-0.3-1.8-1.8-3.2-3.4-3.2    c-1.7-0.1-3.3,1.2-3.8,3.1c-0.2,0.6-0.1,1.3-0.1,1.9c0,3.2,0,6.4,0,9.6c-1.4,0.6-1.4,0.6-4,0.3c0-6.1,0-12.1,0-18.3    c1.3,0,2.3,0,3.5,0c0.2,0.6,0.3,1.2,0.5,1.9c0.4-0.1,0.8-0.2,0.9-0.4c1.1-1.3,2.5-1.9,4.2-1.9c3.3-0.1,5.9,1.9,6.1,5.2    C124,441.1,123.8,445.5,123.8,450.2z"/>
		<path class="st6" d="M63.9,445.2c1.9,0.8,3.4,1.4,5,2c0.4,0.2,0.9,0.2,1.4,0.1c1-0.1,1.9-0.5,2.1-1.6c0.2-1.2-0.5-1.8-1.5-2.1    c-1.4-0.5-2.8-0.8-4.1-1.3c-3.3-1.3-4.6-4.5-2.9-7.6c0.5-0.9,1.3-1.7,2.1-2.2c2.7-1.6,7-0.9,9.6,1.4c-0.3,0.6-0.5,1.3-0.9,1.9    c-0.2,0.3-0.4,0.6-0.7,1c-1-0.5-1.9-1-2.9-1.3c-0.9-0.3-1.9-0.4-2.8-0.3c-0.6,0.1-1.3,0.8-1.4,1.3c-0.1,0.5,0.4,1.3,0.9,1.7    c0.6,0.5,1.4,0.7,2.2,1c1.2,0.5,2.6,0.9,3.7,1.6c3.3,2.1,3.3,6.9,0,9c-1.8,1.2-3.8,1.6-6,0.9c-1.9-0.6-3.8-1.1-5.5-2.8    C62.9,446.9,63.4,446,63.9,445.2z"/>
		<path class="st6" d="M184.1,447.9c0.6-1.1,1.2-2,1.6-2.7c1.8,0.7,3.4,1.4,5,2c0.6,0.2,1.3,0.2,1.9,0c0.7-0.3,1.5-0.9,1.6-1.4    c0.1-0.5-0.5-1.5-1.1-1.8c-0.8-0.5-1.8-0.7-2.7-1.1c-0.9-0.3-1.8-0.6-2.7-1c-2.2-1.1-3.1-3-2.8-5.3c0.3-2.3,1.8-4,4-4.6    c2.7-0.7,5.6-0.2,8.4,1.7c-0.4,1-0.8,2-1.3,3.2c-0.9-0.5-1.6-0.9-2.3-1.2c-1-0.3-2.1-0.5-3.2-0.6c-0.9-0.1-1.6,0.5-1.8,1.3    c-0.2,0.9,0.4,1.5,1.1,1.9c0.6,0.3,1.2,0.5,1.8,0.7c1.2,0.5,2.5,1.1,3.7,1.6c3.7,1.5,3,7.9,0.1,9.2c-1,0.5-2.1,1-3.1,1.1    C189.3,450.9,186.5,450,184.1,447.9z"/>
		<path class="st6" d="M459.4,436.8c-0.9-0.5-1.6-0.9-2.3-1.1c-1.1-0.3-2.2-0.6-3.2-0.5c-0.6,0-1.4,0.8-1.7,1.4    c-0.2,0.4,0.5,1.3,1,1.7c0.5,0.4,1.3,0.6,1.9,0.9c1.2,0.5,2.5,1,3.7,1.6c1.8,1,2.8,2.6,2.6,4.7c-0.1,2.2-1.3,3.7-3.2,4.7    c-2.4,1.2-4.8,1-7.2,0c-1.3-0.5-2.5-1.1-3.5-2.3c0.5-0.9,1-1.7,1.6-2.8c0.8,0.5,1.5,0.9,2.1,1.3c1.4,0.9,3,1.1,4.6,0.9    c1-0.1,1.6-0.7,1.8-1.7c0.2-1-0.5-1.5-1.3-1.8c-0.7-0.3-1.5-0.6-2.2-0.9c-0.5-0.2-1.1-0.3-1.6-0.5c-3.4-1.2-4.6-3.3-3.9-6.9    c0.5-2.5,3.1-4.2,6.1-4c1.5,0.1,3,0.5,4.4,1c1.7,0.6,1.8,1,1,2.7C460,435.7,459.7,436.1,459.4,436.8z"/>
		<path class="st6" d="M132.7,447.8c0.6-0.9,1.1-1.8,1.8-2.8c0.9,0.6,1.6,1.2,2.4,1.5c1.3,0.4,2.6,0.7,3.9,0.8    c1,0.1,1.9-0.6,2.1-1.6c0.2-1.1-0.6-1.6-1.5-1.9c-0.8-0.3-1.7-0.6-2.5-0.9c-0.9-0.3-1.8-0.6-2.7-1.1c-2.2-1.2-3-3-2.6-5.7    c0.4-2.3,1.8-3.8,4.2-4.3c2.3-0.5,4.4,0,6.5,0.8c1.7,0.7,1.7,0.9,0.9,2.7c-0.2,0.4-0.4,0.8-0.7,1.4c-0.8-0.4-1.5-0.8-2.4-1.1    c-1.1-0.3-2.3-0.6-3.5-0.5c-0.5,0-1.4,0.8-1.5,1.3c-0.1,0.5,0.4,1.3,0.9,1.7c0.5,0.4,1.3,0.6,1.9,0.9c1.3,0.6,2.7,1,3.9,1.7    c1.7,1,2.6,2.5,2.5,4.6c-0.2,2.2-1.2,3.8-3.1,4.8c-1.9,1-3.8,1.1-5.8,0.5C135.9,449.9,134.1,449.4,132.7,447.8z"/>
		<path class="st6" d="M83.3,435.6c0,3.4-0.1,6.4,0,9.4c0.1,1.6,1.1,2.2,2.7,1.9c0.5-0.1,0.9-0.3,1.3-0.4c0.2,0.2,0.4,0.3,0.4,0.4    c0.3,2.9,0.1,3.4-2.1,3.9c-2.5,0.6-5.2-0.6-5.9-2.9c-0.4-1.2-0.5-2.5-0.5-3.8c-0.1-2.7,0-5.4,0-8.2c-0.7-0.2-1.3-0.3-2-0.5    c0-1.1,0-2.2,0-3.4c0.6-0.1,1.2-0.2,2-0.4c0-1.6,0-3.1,0-4.8c0.6-0.1,0.9-0.2,1.3-0.2c2.6,0,3.2-0.8,2.8,3.2c-0.1,0.5,0,1.1,0,1.9    c1.5,0,3,0,4.6,0c0,1.4,0,2.5,0,3.9C86.4,435.6,85,435.6,83.3,435.6z"/>
		<path class="st6" d="M392.7,435.9c-0.8-0.2-1.4-0.4-2.2-0.6c0-1.1,0-2.1,0-3.3c0.7-0.2,1.3-0.3,2.1-0.5c0-1.5,0-3,0-4.4    c0.2-0.2,0.3-0.4,0.5-0.4c3.7-0.4,3.7-0.4,3.5,3.3c-0.1,1.5,0.1,1.8,1.7,1.8c0.9,0,1.9-0.1,3-0.1c0,1.4,0,2.5,0,3.9    c-1.6,0-3,0-4.6,0c0,1.8,0,3.4,0,4.9c0,1,0,2.1-0.1,3.1c-0.1,2.8,1,3.6,3.6,2.8c0.2-0.1,0.5-0.1,0.7-0.1c0.1,0.1,0.3,0.2,0.3,0.4    c0.5,3-0.4,4.1-3.5,4.1c-3,0.1-5.1-1.9-5.1-5.1c0-2.8,0-5.6,0-8.4C392.7,436.9,392.7,436.5,392.7,435.9z"/>
		<path class="st6" d="M504.1,528.7c2.5,0.9,4.4,2.5,6.4,4.3c1.6-1.7,3.1-3.4,4.8-5.3c1.9,1.5,3.7,2.8,5.5,4.2    c0.6,0.5,0.7,1.1,0.2,1.7c-1.4,1.7-2.8,3.4-4.4,5.4c-2.3-1.5-4.4-2.9-6.6-4.4c-1.4,1.7-2.6,3.2-3.9,4.8c-2.3-1.5-4.4-2.9-6.8-4.4    C501.1,532.8,502.5,530.8,504.1,528.7z"/>
		<path class="st6" d="M42.8,538.4c-2.4-1.5-4.4-2.8-6.8-4.3c1.6-2.3,3.1-4.3,4.5-6.4c2.7,0.6,4.4,2.6,6.6,4.2    c1.5-1.8,3-3.5,4.7-5.4c2.2,1.7,4.2,3.3,6.5,5.1c-1.8,2.2-3.4,4.1-5.2,6.3c-2.3-1.6-4.3-3-6.5-4.5    C45.4,535.1,44.1,536.7,42.8,538.4z"/>
		<path class="st6" d="M342,527.4c2.2,1.5,4.3,2.9,6.5,4.4c1.5-1.7,2.9-3.3,4.4-5c2.4,1,3.9,2.7,5.7,4.1c0.7,0.6,0.5,1.3,0.1,1.9    c-1.3,1.7-2.7,3.3-4.3,5.1c-2.2-1.6-4.3-3-6.4-4.6c-1.3,1.7-2.5,3.2-3.9,4.9c-2.3-1.4-4.4-2.8-6.7-4.2    C338.7,531.8,340.2,529.7,342,527.4z"/>
		<path class="st6" d="M464.6,435.9c-0.9-0.2-1.5-0.4-2.2-0.6c0-1.1-0.1-2.1-0.1-3.2c0.7-0.2,1.4-0.4,2.3-0.6c0-1.5,0-3.1,0-4.5    c0.3-0.2,0.4-0.4,0.6-0.4c3.7-0.2,3.7-0.2,3.5,3.4c0,0.3,0,0.6,0,1c0,0.2,0.1,0.3,0.2,0.7c1.3,0,2.7,0,4.3,0c0,1.3,0,2.5,0,3.8    c-1.4,0-2.8,0-4.5,0c0,0.9,0,1.6,0,2.3c0,2,0.1,4,0,6c-0.1,2.9,0.9,3.6,3.6,2.7c0.1,0,0.3,0,0.5-0.1c1.3,2.4,0.9,3.5-1.5,4.2    c-2.8,0.9-6.9-0.8-6.6-5C464.7,442.5,464.6,439.3,464.6,435.9z"/>
		<path class="st6" d="M209.3,446.3c1.3,3.7-0.7,4.5-3.6,4.5c-2.8,0-4.4-1.7-4.5-4.6c-0.1-2.9,0-5.7-0.1-8.6c0-0.5-0.1-1.1-0.1-1.7    c-0.7-0.2-1.4-0.3-2.1-0.5c0-1.1,0-2.1,0-3.3c0.7-0.2,1.3-0.3,2.2-0.5c0-1.5,0-3.1,0-4.8c1.3-0.1,2.4-0.1,3.8-0.2    c0.1,1.7,0.2,3.4,0.3,5.2c1.5,0,2.8,0,4.4,0c0,1.2,0,2.4,0,3.8c-1.4,0-2.8,0-4.5,0c0,3.3-0.1,6.4,0,9.4c0,1.3,1.3,2.1,2.6,1.8    C208.1,446.8,208.6,446.5,209.3,446.3z"/>
		<path class="st6" d="M253.9,426.7c0,1.8,0,3.3,0,5c1.5,0,2.7,0,4.1,0c0.6,1.2,0.4,2.4,0.3,3.8c-1.4,0-2.7,0-4.4,0c0,1.1,0,2,0,2.9    c0,1.8,0,3.7,0,5.5c0,2.7,1,3.3,3.6,2.4c0.2-0.1,0.5,0,0.7-0.1c0.1,0.3,0.2,0.5,0.2,0.7c0.2,2.9-1.3,4.2-4.2,3.7    c-2.9-0.5-4.4-2.3-4.2-5.1c0.2-3.2,0-6.5,0-9.8c-0.8-0.2-1.4-0.3-2.2-0.4c0-1.1,0-2.1,0-3.4c0.6-0.1,1.3-0.3,2.2-0.5    c0-1.5,0-3.1,0-4.8C251.3,426.7,252.4,426.7,253.9,426.7z"/>
		<path class="st6" d="M259.4,523.5c0-2.1,0-3.8,0-5.6c1.4-0.5,17.1-0.7,20.3-0.2c0,1.8,0,3.5,0,5.6    C273.1,523.5,266.4,523.4,259.4,523.5z"/>
		<path class="st6" d="M158.5,425.9c1.2,0,2.3,0,3.6,0c0,8.1,0,16.1,0,24.4c-1.1,0-2.2,0-3.3,0C158.3,448.8,158,431.8,158.5,425.9z"/>
		<path class="st6" d="M59.9,450.4c-1.3-0.1-2.5-0.1-3.7-0.2c0-6.2,0-12.1,0-18.3c1.2,0,2.4,0,3.7,0    C59.9,437.9,59.9,443.9,59.9,450.4z"/>
		<path class="st6" d="M437.4,538.1c-2.3-1.6-4.3-3.1-6.5-4.6c1.5-1.8,2.9-3.5,4.4-5c0.4-0.4,1.4-0.5,1.9-0.3    c1.9,0.8,3.5,2.1,5.2,3.7C440.7,533.9,439.2,535.8,437.4,538.1z"/>
		<path class="st6" d="M141.2,532c-1.8,2.1-3.3,4-5,6c-2.2-1.6-4.2-3-6.5-4.7c1.7-1.9,3.2-3.6,4.8-5.1c0.3-0.3,1.1-0.3,1.5-0.1    C137.9,529,139.7,530.1,141.2,532z"/>
		<path class="st6" d="M517.3,543.1c-1.7,2-3.2,3.8-4.7,5.5c-0.3,0.3-1.1,0.3-1.5,0.1c-1.8-1.2-3.6-2.6-5.5-4    c1.6-1.8,2.9-3.4,4.2-4.9c0.8-0.9,1.8-0.7,2.6-0.1C514,540.7,515.4,541.8,517.3,543.1z"/>
		<path class="st6" d="M127.3,425.9c1.4,0,2.7,0,4.3,0c0,2.2,0.3,4.3-0.3,6.5c-0.5,1.9-1.9,2.7-3.5,3.3c-0.7,0.2-1.3,0.2-1.6-0.6    c-0.2-0.7-0.2-1.2,0.6-1.6c1.1-0.5,2.2-1.1,2.2-2.6c-0.6-0.2-1.1-0.5-1.7-0.7C127.3,428.8,127.3,427.4,127.3,425.9z"/>
		<path class="st6" d="M56,425c1.5,0,2.7,0,4.1,0c0,1.3,0,2.5,0,3.9c-1.4,0-2.6,0-4.1,0C56,427.6,56,426.4,56,425z"/>
		<linearGradient id="SVGID_11_" gradientUnits="userSpaceOnUse" x1="291.8015" y1="210.0702" x2="330.832" y2="210.0702">
			<stop offset="0" style="stop-color:#054C34"/>
			<stop offset="1" style="stop-color:#067C43"/>
		</linearGradient>
		<path class="st12" d="M330.8,219.2c-13.2,0-26,0-39,0c0-6.1,0-12.1,0-18.3c13,0,25.9,0,39,0C330.8,206.9,330.8,213,330.8,219.2z"/>
		<linearGradient id="SVGID_12_" gradientUnits="userSpaceOnUse" x1="210.1102" y1="210.0847" x2="248.8917" y2="210.0847">
			<stop offset="0" style="stop-color:#054C34"/>
			<stop offset="1" style="stop-color:#067C43"/>
		</linearGradient>
		<path class="st13" d="M248.9,200.9c0,6.2,0,12,0,18.3c-4.2,0.4-8.4,0.1-12.7,0.1c-4.3,0.1-8.6,0-13,0c-4.3,0-8.6,0-13.1,0    c0-6.1,0-12.1,0-18.4c6.4,0,12.9,0,19.3,0C235.9,200.9,242.3,200.9,248.9,200.9z"/>
		<path class="st6" d="M187.3,96.1c0.2,0.3,0.4,0.5,0.5,0.8c1.7,2.8,0.3,5.6-2.9,5.9c-1.7,0.1-3.3,0-5.2,0c0-4.2,0-8.3,0-12.5    c1.9,0,3.8-0.2,5.6,0c2.8,0.4,3.7,2.6,2.3,5.1C187.5,95.6,187.4,95.9,187.3,96.1z M181.9,97.3c0.1,1.2-0.1,2.3,0.4,2.9    c0.4,0.5,1.6,0.4,2.4,0.3c0.8-0.1,1.4-0.7,1.4-1.7c-0.1-0.9-0.6-1.5-1.5-1.5C183.9,97.3,183.2,97.3,181.9,97.3z M183.7,95.3    c1.4,0,2.1-0.5,2.2-1.4c0.1-1-0.7-1.5-2.2-1.5c-1.3,0-1.7,0.4-1.7,1.5C182,95,182.7,95.4,183.7,95.3z"/>
		<path class="st6" d="M325,90.4c3-0.5,3-0.5,4,1.6c0.7,1.4,1.3,2.9,2,4.3c0.3,0.6,0.6,1.1,1,1.7c0.2-0.1,0.3-0.1,0.5-0.2    c0-2.5,0-4.9,0-7.6c0.7,0,1.3,0,2.1,0c0,4.2,0,8.3,0,12.4c-2.7,0.3-2.7,0.3-3.7-1.7c-0.7-1.6-1.4-3.2-2.1-4.8    c-0.3-0.6-0.6-1.1-1-1.8c-1,1.5-0.2,2.8-0.3,4.1c-0.1,1.3,0,2.7,0,4c-1.9,0.6-2.3,0.4-2.3-1.2C325,97.7,325,94.1,325,90.4z"/>
		<path class="st6" d="M209.4,97.9c0-2.5,0-5,0-7.6c0.7,0,1.3,0,2.1,0c0,4.1,0,8.2,0,12.2c-2.4,0.8-2.8,0.7-3.8-1.4    c-1-2.2-2-4.5-3.1-6.9c-1,1.5-0.4,3-0.5,4.3c-0.1,1.4,0,2.8,0,4.3c-1.2,0.3-2.2,0.3-2.2-1.1c-0.1-3.7,0-7.5,0-11.2    c2.9-0.7,3-0.6,4,1.7c0.7,1.5,1.3,3.1,2.1,4.6c0.2,0.5,0.6,0.9,0.9,1.3C209.1,98.1,209.3,98,209.4,97.9z"/>
		<path class="st6" d="M230.4,96c0-0.1,0-0.6,0.1-1.2c0.4-2.6,2.3-4.5,4.7-4.7c2.4-0.2,4.7,1.1,5.5,3.6c0.6,1.9,0.7,3.9-0.2,5.8    c-1.1,2.5-3.5,3.8-6,3.3c-2.1-0.4-3.9-2.5-4.2-5C230.3,97.5,230.4,97,230.4,96z M238.5,96.6c-0.1-0.7-0.2-1.3-0.4-1.9    c-0.3-1.3-1.3-2.2-2.4-2.3c-1.3-0.1-2.1,0.7-2.6,1.7c-0.7,1.6-0.7,3.2,0,4.8c0.5,1.1,1.3,1.8,2.6,1.7c1.2,0,2-0.8,2.4-2.3    C238.4,97.8,238.4,97.2,238.5,96.6z"/>
		<path class="st6" d="M217.5,90.4c-0.1,1.7-0.2,3-0.3,4.8c0.7-0.4,1.1-0.6,1.4-0.9c0.6-0.8,1.3-1.7,1.8-2.5c0.9-1.5,2.2-2,4-1.4    c-0.9,2.1-3,3.2-4.3,5.2c1.5,2.3,3,4.6,4.5,6.9c-2.2,0.9-2.8,0.7-3.8-1c-0.6-1-1-2-1.6-2.9c-0.2-0.3-0.7-0.6-1-0.8    c-0.3,0.4-0.7,0.8-0.8,1.3c-0.1,0.6,0,1.3,0,1.9c0.1,2.1,0,2.2-2.5,1.8c0-4,0-8,0-12.3C215.7,90.4,216.4,90.4,217.5,90.4z"/>
		<path class="st6" d="M172,94.9c0,1.1-0.1,1.8-0.1,2.7c-1.5-0.1-2.6-0.2-3.8-0.3c-1-0.1-1.4,0.5-1.5,1.4c0,1,0.2,1.8,1.4,1.8    c1,0,1.9,0,2.9-0.2c0.8-0.1,1.5-0.1,1.6,0.9c0.1,1-0.4,1.6-1.5,1.7c-2.1,0-4.1,0-6.4,0c0-4.3,0-8.4,0-12.6c2.5,0,5,0,7.5,0    c0.1,0.3,0.3,0.5,0.3,0.7c0,0.5-0.1,0.9-0.1,1.4c-0.3,0.1-0.5,0.3-0.8,0.3c-1.1,0-2.2-0.1-3.4-0.2c-1,0-1.4,0.5-1.4,1.5    c0,0.9,0.6,1.3,1.4,1.3C169.1,95.2,170.3,95,172,94.9z"/>
		<path class="st6" d="M134.2,93.7c-1.2,0.4-2.1,0.3-2.9-0.6c-1.2-1.3-1.6-1.1-3.3,0.5c0.7,0.5,1.3,1,2,1.4c0.6,0.3,1.4,0.4,2,0.7    c1.8,0.7,2.5,1.8,2.5,3.6c0,1.6-0.8,2.7-2.5,3.4c-2.9,1.1-5.5-0.1-6.6-3.3c0.9-0.9,1.8-0.6,2.7,0.1c0.4,0.4,0.7,0.9,1.2,1.2    c0.9,0.6,2.3,0.1,2.6-0.8c0.3-0.7-0.2-1.6-1.2-2c-0.9-0.3-1.8-0.5-2.7-0.9c-1.7-0.8-2.5-2.3-2.3-3.8c0.3-1.6,1.8-2.9,3.5-3.1    C132,89.9,133.4,90.9,134.2,93.7z"/>
		<path class="st6" d="M279.4,102.7c0-4.2,0-8.2,0-12.4c0.7,0,1.4,0,2.2,0c0,1.7,0,3.3,0,5.2c1.7-1.1,2.5-2.6,3.4-4    c1-1.4,2.2-1.6,4-1.1c-1.5,1.8-2.9,3.3-4.4,5c1.5,2.4,2.9,4.7,4.4,7c-2.4,0.6-2.8,0.5-3.9-1.3c-0.7-1.3-1.2-2.7-2.5-3.7    c-1.5,0.9-1,2.3-1,3.5C281.7,102.9,281.7,102.9,279.4,102.7z"/>
		<path class="st6" d="M303.3,93.5c-1.2,0.5-2,0.6-2.8-0.2c-0.3-0.3-0.5-0.6-0.8-0.8c-0.8-0.5-2-0.2-2.3,0.5c-0.4,1,0.3,1.5,1,1.8    c0.9,0.4,1.8,0.5,2.7,0.9c1.7,0.7,2.6,1.8,2.5,3.4c-0.1,1.7-0.9,2.8-2.5,3.5c-2.9,1.2-5.6,0-6.7-3.3c1.1-0.6,2-0.5,2.9,0.5    c0.3,0.4,0.8,0.8,1.3,1c0.9,0.4,1.7,0,2.3-0.8c0.4-0.7,0-1.6-1.1-2.1c-0.9-0.4-1.9-0.5-2.7-0.9c-1.9-0.8-2.6-2.3-2.1-4.3    c0.3-1.4,1.3-2.2,2.6-2.5c1.8-0.4,3.5-0.3,4.8,1.3C302.8,92.1,303,92.8,303.3,93.5z"/>
		<path class="st6" d="M189.6,102.6c1.3-4.1,2.5-8,3.8-12.3c0.6,0,1.4-0.2,2.1-0.1c0.4,0.1,1,0.5,1.2,1c1.2,3.6,2.4,7.3,3.5,10.9    c0,0.1-0.1,0.3-0.1,0.6c-0.7,0-1.4,0-2.2,0c-0.2-0.4-0.4-0.7-0.5-1.1c-0.3-1.4-1.1-1.9-2.5-1.9c-1.5,0-2.1,0.5-2.5,1.9    C192,103.1,191.8,103,189.6,102.6z M193.3,97.6c1.2,0,2,0,3.2,0c-0.5-1.6-0.9-2.8-1.4-4.1c-0.2,0-0.4,0-0.6,0    C194.2,94.7,193.8,95.9,193.3,97.6z"/>
		<path class="st6" d="M154.4,102.6c-2.1,0.5-2.4,0.5-2.8-0.8c-0.4-1.8-1.5-2.3-3.1-2c-0.4,0.1-0.8,0.1-1.1,0.1    c-0.6,1.1-1.1,2.1-1.9,3c-0.2,0.3-1.1,0-1.9-0.1c1.3-4.3,2.5-8.3,3.8-12.5c0.6,0,1.3-0.2,2-0.1c0.5,0.1,1.2,0.5,1.4,1    C152.1,95,153.3,98.8,154.4,102.6z M147.5,97.5c1.1,0.2,1.9,0.6,2.9-0.2c-0.4-1.3-0.7-2.6-1.2-4.2C147.8,94.5,148,96,147.5,97.5z"/>
		<path class="st6" d="M277.6,102.5c-2.3,0.7-2.4,0.7-3-1.1c-0.4-1.4-1.3-1.6-2.5-1.6c-1.4,0-2,0.4-2.4,1.7    c-0.5,1.7-0.6,1.7-2.7,1.1c1.2-4,2.4-8,3.7-12.2c0.6,0,1.3-0.3,2-0.1c0.5,0.1,1.2,0.5,1.4,1C275.2,94.9,276.4,98.6,277.6,102.5z     M273.9,97.6c-1-1.6-0.4-3.3-2.2-4.4c-0.4,1.5-0.7,2.8-1.1,4.4C271.8,97.6,272.6,97.6,273.9,97.6z"/>
		<path class="st6" d="M258.3,90.3c1.9,0,3.6-0.1,5.2,0c2.5,0.2,3.7,2,3.5,4.5c-0.2,2.2-1.7,3.4-4.1,3.3c-2.1-0.1-2.1-0.1-1.9,2    c0,0.8,0,1.6,0,2.3c-2.3,0.7-2.6,0.6-2.6-1.4C258.3,97.6,258.3,94.1,258.3,90.3z M262.4,92.4c-1.3,0-1.6,0.3-1.7,1.7    c-0.1,1.5,0.3,1.9,1.4,2c1.3,0,2.4-0.7,2.5-1.8C264.7,93.3,263.8,92.5,262.4,92.4z"/>
		<path class="st6" d="M312.8,102.6c1.2-4.1,2.4-8.1,3.7-12.2c0.5-0.1,1.1-0.1,1.7-0.2c0.9-0.1,1.5,0.3,1.8,1.2    c1.1,3.7,2.3,7.4,3.4,11.1c-2.1,0.7-2.3,0.6-2.9-1.1c-0.6-1.7-0.7-1.6-2.6-1.7c-1.4-0.1-2,0.4-2.3,1.8    C315.2,103,315,103,312.8,102.6z M316.5,97.6c1.1,0,2,0,3.1,0c-0.6-1.6-0.7-3.2-1.9-4.7C317.2,94.6,316.9,95.9,316.5,97.6z"/>
		<path class="st6" d="M246.2,92.5c0,1,0,1.9,0,3.1c1.2-0.1,2.2-0.2,3.2-0.2c1.6,0,1.7,0.1,1.5,2.2c-1.5,0-2.9,0-4.7,0    c0,1.4,0,2.6,0,3.8c0,0.7-0.1,1.3-0.9,1.5c-1.1,0.3-1.8-0.3-1.8-1.5c0-3.6,0-7.2,0-11c2.6-0.3,5.2,0,7.9-0.2c0,0.9,0,1.5,0,2.4    C249.6,92.5,248,92.5,246.2,92.5z"/>
		<path class="st6" d="M156.9,92.8c-3.4-0.5-3.4-0.5-3.5-2.1c1.3-0.5,6.7-0.6,9.4-0.2c-0.1,0.6-0.1,1.3-0.2,2c-1.1,0-1.9,0-2.9,0    c-0.8,1.7-0.3,3.4-0.4,5c-0.1,1.7,0,3.3,0,5.2c-0.8,0-1.5,0-2.4,0C156.9,99.4,156.9,96.2,156.9,92.8z"/>
		<path class="st6" d="M310.1,102.9c-0.9,0-1.6-0.1-2.5-0.1c0-3.5,0-6.8,0-10.1c-3.3-0.3-3.3-0.3-3.2-2.5c1.2,0,2.5,0,3.7,0    c1.3,0,2.6,0,3.8,0c1.8,0,1.8,0.1,1.4,2.3c-1,0-2,0.1-3.2,0.2C310.1,96,310.1,99.3,310.1,102.9z"/>
		<path class="st6" d="M138.8,92.7c-3.3-0.1-3.3-0.1-3.4-2.4c0.9,0,1.8-0.1,2.7-0.1c1.7,0,3.3,0,5-0.1c0.8,0,1.5,0,1.5,1.1    c0,1-0.4,1.5-1.5,1.4c-0.6-0.1-1.2,0-2,0c0,3.4,0,6.6,0,9.8c-2.1,0.7-2.5,0.6-2.5-1.3c0-2.2,0.1-4.3,0.1-6.5    C139,94,138.9,93.4,138.8,92.7z"/>
		<path class="st6" d="M290.5,90.2c0.8,0,1.4,0.1,2.3,0.1c0,4,0.1,7.8,0,11.6c0,1.5-1.2,1.1-2.2,0.9    C290.5,98.6,290.5,94.6,290.5,90.2z"/>
	</g>
	<linearGradient id="SVGID_13_" gradientUnits="userSpaceOnUse" x1="113.2283" y1="148.4712" x2="126.055" y2="148.4712">
		<stop offset="0" style="stop-color:#067C43"/>
		<stop offset="1" style="stop-color:#054C34"/>
	</linearGradient>
	<circle class="st14" cx="119.6" cy="148.5" r="6.4"/>
	<linearGradient id="SVGID_14_" gradientUnits="userSpaceOnUse" x1="188.5826" y1="148.4712" x2="201.4094" y2="148.4712">
		<stop offset="0" style="stop-color:#067C43"/>
		<stop offset="1" style="stop-color:#054C34"/>
	</linearGradient>
	<circle class="st15" cx="195" cy="148.5" r="6.4"/>
	<linearGradient id="SVGID_15_" gradientUnits="userSpaceOnUse" x1="263.9369" y1="148.4712" x2="276.7637" y2="148.4712">
		<stop offset="0" style="stop-color:#067C43"/>
		<stop offset="1" style="stop-color:#054C34"/>
	</linearGradient>
	<circle class="st16" cx="270.4" cy="148.5" r="6.4"/>
	<linearGradient id="SVGID_16_" gradientUnits="userSpaceOnUse" x1="337.9369" y1="148.4712" x2="350.7637" y2="148.4712">
		<stop offset="0" style="stop-color:#067C43"/>
		<stop offset="1" style="stop-color:#054C34"/>
	</linearGradient>
	<circle class="st17" cx="344.4" cy="148.5" r="6.4"/>
	<linearGradient id="SVGID_17_" gradientUnits="userSpaceOnUse" x1="117.6718" y1="76.1284" x2="122.7528" y2="76.1284">
		<stop offset="0" style="stop-color:#067C43"/>
		<stop offset="1" style="stop-color:#054C34"/>
	</linearGradient>
	<circle class="st18" cx="120.2" cy="76.1" r="2.5"/>
	<linearGradient id="SVGID_18_" gradientUnits="userSpaceOnUse" x1="133.5249" y1="76.1284" x2="138.6059" y2="76.1284">
		<stop offset="0" style="stop-color:#067C43"/>
		<stop offset="1" style="stop-color:#054C34"/>
	</linearGradient>
	<circle class="st19" cx="136.1" cy="76.1" r="2.5"/>
	<linearGradient id="SVGID_19_" gradientUnits="userSpaceOnUse" x1="149.378" y1="76.1284" x2="154.459" y2="76.1284">
		<stop offset="0" style="stop-color:#067C43"/>
		<stop offset="1" style="stop-color:#054C34"/>
	</linearGradient>
	<circle class="st20" cx="151.9" cy="76.1" r="2.5"/>
	<linearGradient id="SVGID_20_" gradientUnits="userSpaceOnUse" x1="165.2311" y1="76.1284" x2="170.3121" y2="76.1284">
		<stop offset="0" style="stop-color:#067C43"/>
		<stop offset="1" style="stop-color:#054C34"/>
	</linearGradient>
	<circle class="st21" cx="167.8" cy="76.1" r="2.5"/>
	<linearGradient id="SVGID_21_" gradientUnits="userSpaceOnUse" x1="181.0843" y1="76.1284" x2="186.1652" y2="76.1284">
		<stop offset="0" style="stop-color:#067C43"/>
		<stop offset="1" style="stop-color:#054C34"/>
	</linearGradient>
	<circle class="st22" cx="183.6" cy="76.1" r="2.5"/>
	<linearGradient id="SVGID_22_" gradientUnits="userSpaceOnUse" x1="196.9374" y1="76.1284" x2="202.0183" y2="76.1284">
		<stop offset="0" style="stop-color:#067C43"/>
		<stop offset="1" style="stop-color:#054C34"/>
	</linearGradient>
	<circle class="st23" cx="199.5" cy="76.1" r="2.5"/>
	<linearGradient id="SVGID_23_" gradientUnits="userSpaceOnUse" x1="212.7905" y1="76.1284" x2="217.8714" y2="76.1284">
		<stop offset="0" style="stop-color:#067C43"/>
		<stop offset="1" style="stop-color:#054C34"/>
	</linearGradient>
	<circle class="st24" cx="215.3" cy="76.1" r="2.5"/>
	<linearGradient id="SVGID_24_" gradientUnits="userSpaceOnUse" x1="228.6436" y1="76.1284" x2="233.7246" y2="76.1284">
		<stop offset="0" style="stop-color:#067C43"/>
		<stop offset="1" style="stop-color:#054C34"/>
	</linearGradient>
	<circle class="st25" cx="231.2" cy="76.1" r="2.5"/>
	<linearGradient id="SVGID_25_" gradientUnits="userSpaceOnUse" x1="244.4967" y1="76.1284" x2="249.5777" y2="76.1284">
		<stop offset="0" style="stop-color:#067C43"/>
		<stop offset="1" style="stop-color:#054C34"/>
	</linearGradient>
	<circle class="st26" cx="247" cy="76.1" r="2.5"/>
	<linearGradient id="SVGID_26_" gradientUnits="userSpaceOnUse" x1="260.3498" y1="76.1284" x2="265.4308" y2="76.1284">
		<stop offset="0" style="stop-color:#067C43"/>
		<stop offset="1" style="stop-color:#054C34"/>
	</linearGradient>
	<circle class="st27" cx="262.9" cy="76.1" r="2.5"/>
	<linearGradient id="SVGID_27_" gradientUnits="userSpaceOnUse" x1="276.2029" y1="76.1284" x2="281.2839" y2="76.1284">
		<stop offset="0" style="stop-color:#067C43"/>
		<stop offset="1" style="stop-color:#054C34"/>
	</linearGradient>
	<circle class="st28" cx="278.7" cy="76.1" r="2.5"/>
	<linearGradient id="SVGID_28_" gradientUnits="userSpaceOnUse" x1="292.056" y1="76.1284" x2="297.137" y2="76.1284">
		<stop offset="0" style="stop-color:#067C43"/>
		<stop offset="1" style="stop-color:#054C34"/>
	</linearGradient>
	<circle class="st29" cx="294.6" cy="76.1" r="2.5"/>
	<linearGradient id="SVGID_29_" gradientUnits="userSpaceOnUse" x1="307.9091" y1="76.1284" x2="312.9901" y2="76.1284">
		<stop offset="0" style="stop-color:#067C43"/>
		<stop offset="1" style="stop-color:#054C34"/>
	</linearGradient>
	<circle class="st30" cx="310.4" cy="76.1" r="2.5"/>
	<linearGradient id="SVGID_30_" gradientUnits="userSpaceOnUse" x1="323.7622" y1="76.1284" x2="328.8432" y2="76.1284">
		<stop offset="0" style="stop-color:#067C43"/>
		<stop offset="1" style="stop-color:#054C34"/>
	</linearGradient>
	<circle class="st31" cx="326.3" cy="76.1" r="2.5"/>
	<linearGradient id="SVGID_31_" gradientUnits="userSpaceOnUse" x1="339.6153" y1="76.1284" x2="344.6963" y2="76.1284">
		<stop offset="0" style="stop-color:#067C43"/>
		<stop offset="1" style="stop-color:#054C34"/>
	</linearGradient>
	<circle class="st32" cx="342.2" cy="76.1" r="2.5"/>
	<linearGradient id="SVGID_32_" gradientUnits="userSpaceOnUse" x1="113.2283" y1="148.4712" x2="126.055" y2="148.4712">
		<stop offset="0" style="stop-color:#067C43"/>
		<stop offset="1" style="stop-color:#054C34"/>
	</linearGradient>
	<circle class="st33" cx="119.6" cy="148.5" r="6.4"/>
	<linearGradient id="SVGID_33_" gradientUnits="userSpaceOnUse" x1="188.5826" y1="148.4712" x2="201.4094" y2="148.4712">
		<stop offset="0" style="stop-color:#067C43"/>
		<stop offset="1" style="stop-color:#054C34"/>
	</linearGradient>
	<circle class="st34" cx="195" cy="148.5" r="6.4"/>
	<linearGradient id="SVGID_34_" gradientUnits="userSpaceOnUse" x1="263.9369" y1="148.4712" x2="276.7637" y2="148.4712">
		<stop offset="0" style="stop-color:#067C43"/>
		<stop offset="1" style="stop-color:#054C34"/>
	</linearGradient>
	<circle class="st35" cx="270.4" cy="148.5" r="6.4"/>
	<linearGradient id="SVGID_35_" gradientUnits="userSpaceOnUse" x1="337.9369" y1="148.4712" x2="350.7637" y2="148.4712">
		<stop offset="0" style="stop-color:#067C43"/>
		<stop offset="1" style="stop-color:#054C34"/>
	</linearGradient>
	<circle class="st36" cx="344.4" cy="148.5" r="6.4"/>
	<linearGradient id="SVGID_36_" gradientUnits="userSpaceOnUse" x1="113.2283" y1="148.4712" x2="126.055" y2="148.4712">
		<stop offset="0" style="stop-color:#067C43"/>
		<stop offset="1" style="stop-color:#054C34"/>
	</linearGradient>
	<circle class="st37" cx="119.6" cy="148.5" r="6.4"/>
	<linearGradient id="SVGID_37_" gradientUnits="userSpaceOnUse" x1="188.5826" y1="148.4712" x2="201.4094" y2="148.4712">
		<stop offset="0" style="stop-color:#067C43"/>
		<stop offset="1" style="stop-color:#054C34"/>
	</linearGradient>
	<circle class="st38" cx="195" cy="148.5" r="6.4"/>
	<linearGradient id="SVGID_38_" gradientUnits="userSpaceOnUse" x1="263.9369" y1="148.4712" x2="276.7637" y2="148.4712">
		<stop offset="0" style="stop-color:#067C43"/>
		<stop offset="1" style="stop-color:#054C34"/>
	</linearGradient>
	<circle class="st39" cx="270.4" cy="148.5" r="6.4"/>
	<linearGradient id="SVGID_39_" gradientUnits="userSpaceOnUse" x1="337.9369" y1="148.4712" x2="350.7637" y2="148.4712">
		<stop offset="0" style="stop-color:#067C43"/>
		<stop offset="1" style="stop-color:#054C34"/>
	</linearGradient>
	<circle class="st40" cx="344.4" cy="148.5" r="6.4"/>
</g>
</svg>